<?xml version="1.0" encoding="UTF-8"?>
<!-- Created with Inkscape (http://www.inkscape.org/) -->
<svg width="15.927mm" height="3.233mm" version="1.1" viewBox="0 0 15.927 3.233" xmlns="http://www.w3.org/2000/svg" xmlns:cc="http://creativecommons.org/ns#" xmlns:dc="http://purl.org/dc/elements/1.1/" xmlns:rdf="http://www.w3.org/1999/02/22-rdf-syntax-ns#">
 <metadata>
  <rdf:RDF>
   <cc:Work rdf:about="">
    <dc:format>image/svg+xml</dc:format>
    <dc:type rdf:resource="http://purl.org/dc/dcmitype/StillImage"/>
    <dc:title/>
   </cc:Work>
  </rdf:RDF>
 </metadata>
 <g transform="translate(-88.26 -32.764)">
  <g transform="scale(.26458)" style="font-feature-settings:normal;font-variant-caps:normal;font-variant-ligatures:normal;font-variant-numeric:normal" aria-label="sρ∞RADIUS">
   <path d="m336.29 131.78q0.77733 0 1.0707-0.20533 0.29333-0.20534 0.29333-0.484 0-0.132-0.0587-0.23467-0.044-0.10267-0.176-0.19067-0.11733-0.10266-0.33733-0.19066-0.22-0.10267-0.55733-0.23467-0.41067-0.14667-0.71867-0.308t-0.51333-0.36667q-0.20534-0.22-0.308-0.49866-0.10267-0.27867-0.10267-0.66 0-1.0707 0.748-1.716 0.76267-0.64534 2.2733-0.64534 0.748 0 1.364 0.132 0.63067 0.132 0.99734 0.308l-0.66 1.4227q-0.33734-0.16133-0.77734-0.264-0.42533-0.10267-1.0853-0.10267-0.14667 0-0.33733 0.0293-0.176 0.0147-0.33734 0.088-0.16133 0.0733-0.27866 0.20533-0.10267 0.11733-0.10267 0.308 0 0.132 0.0293 0.23467 0.044 0.088 0.16134 0.19066 0.11733 0.088 0.33733 0.19067t0.58667 0.23467q0.44 0.176 0.748 0.352 0.32266 0.176 0.528 0.396 0.22 0.22 0.308 0.51333 0.10266 0.29333 0.10266 0.704 0 0.42533-0.176 0.836t-0.55733 0.748q-0.36667 0.32267-0.968 0.528t-1.4373 0.20533q-0.60134 0-1.056-0.0733-0.45467-0.0733-0.792-0.176-0.33734-0.10267-0.572-0.20533-0.22-0.11734-0.352-0.19067l0.67466-1.4227q0.29334 0.16134 0.80667 0.352 0.51333 0.19067 1.232 0.19067z" fill="#306998" style="font-feature-settings:normal;font-variant-caps:normal;font-variant-ligatures:normal;font-variant-numeric:normal"/>
   <path d="m341.63 129.19q0.352-1.452 1.1587-2.2733 0.82134-0.836 2.288-0.836 1.2467 0 1.8627 0.67466 0.616 0.67467 0.616 1.8187 0 0.90933-0.24933 1.76-0.24934 0.85067-0.748 1.5107-0.49867 0.64533-1.2467 1.0413-0.73333 0.396-1.716 0.396-0.33733 0-0.63067-0.0733-0.27866-0.0733-0.45466-0.14667l-0.60134 2.4787h-1.804zm1.232 2.376q0.0733 0.0587 0.264 0.11733 0.19066 0.044 0.396 0.044 0.60133 0 1.0267-0.23466 0.42534-0.24934 0.68934-0.66 0.27866-0.42534 0.396-0.968 0.132-0.55734 0.132-1.1587 0-0.49867-0.19067-0.792-0.19067-0.308-0.616-0.308-0.24933 0-0.484 0.0733-0.22 0.0733-0.42533 0.24934-0.19067 0.176-0.352 0.484-0.16134 0.308-0.264 0.792z" fill="#306998" style="font-feature-settings:normal;font-variant-caps:normal;font-variant-ligatures:normal;font-variant-numeric:normal"/>
   <path d="m345.94 134.64q-0.073-0.1917-0.17344-0.26473-0.0913-0.0822-0.20996-0.0822-0.20996 0-0.36514 0.17345-0.14606 0.17344-0.14606 0.41078 0 0.1278 0.073 0.23734 0.073 0.10042 0.21909 0.10042 0.27385 0 0.59335-0.3834l0.0639-0.0822zm0.91285 0.22821q0.073 0.1917 0.16432 0.27386 0.10041 0.073 0.22821 0.073 0.20996 0 0.35602-0.17344 0.15518-0.17345 0.15518-0.41079 0-0.1278-0.073-0.22821-0.073-0.10955-0.21908-0.10955-0.27386 0-0.59336 0.3834l-0.0639 0.073zm-2.6199 0.15519q0-0.30125 0.0913-0.58423 0.10041-0.28298 0.28298-0.50207 0.1917-0.21908 0.4473-0.34688 0.26473-0.13693 0.59335-0.13693 0.33776 0 0.53859 0.1917 0.20996 0.1917 0.31037 0.41991 0.26473-0.26473 0.54771-0.43817 0.28299-0.17344 0.61162-0.17344 0.16431 0 0.32862 0.0548 0.16432 0.0548 0.29212 0.18257 0.13692 0.11867 0.20996 0.3195 0.0822 0.1917 0.0822 0.47468 0 0.30125-0.10041 0.58423-0.0913 0.28298-0.28299 0.50207-0.18257 0.21908-0.4473 0.35601-0.2556 0.12781-0.58423 0.12781-0.33775 0-0.54771-0.1917-0.20082-0.1917-0.30124-0.41992-0.26473 0.26473-0.54771 0.43817-0.28298 0.17345-0.61161 0.17345-0.16432 0-0.32863-0.0548t-0.30124-0.17345q-0.12781-0.1278-0.20996-0.3195-0.073-0.20083-0.073-0.48381z" fill="#4b8bbe" fill-opacity=".96396" stroke-width="0" style="font-feature-settings:normal;font-variant-caps:normal;font-variant-ligatures:normal;font-variant-numeric:normal"/>
   <g fill="#ffd43b">
    <path d="m354.71 129.41q0.22 0.36667 0.41067 0.82133 0.20533 0.45467 0.38133 0.95334 0.176 0.484 0.308 0.98266 0.14667 0.49867 0.23467 0.95334h-1.76q-0.16134-0.88-0.45467-1.7013-0.29333-0.82133-0.68933-1.6427h-0.93867l-0.80667 3.344h-1.7747l2.1267-8.932q0.27867-0.0587 0.58667-0.10267 0.32267-0.0587 0.63067-0.088t0.58666-0.044q0.27867-0.0147 0.49867-0.0147 1.452 0 2.1707 0.64534 0.71866 0.63066 0.71866 1.716 0 0.51333-0.14666 1.012-0.132 0.484-0.42534 0.90933-0.27866 0.41067-0.704 0.73333-0.41066 0.308-0.95333 0.45467zm-1.4813-1.1293q0.38133 0 0.71866-0.10267 0.352-0.10267 0.616-0.32267t0.41067-0.55733q0.16133-0.33733 0.16133-0.792 0-0.51333-0.308-0.792t-1.056-0.27867q-0.16133 0-0.29333 0.0147t-0.24933 0.044l-0.67467 2.7867z" style="font-feature-settings:normal;font-variant-caps:normal;font-variant-ligatures:normal;font-variant-numeric:normal"/>
    <path d="m361.67 131h-2.5813q-0.22 0.49866-0.45466 1.0267-0.23467 0.528-0.44 1.0853h-1.8333q1.2467-2.728 2.4053-5.0013 1.1587-2.288 2.2587-4.0773h1.9213q0.20533 1.7307 0.32266 3.6667 0.132 1.9213 0.16134 4.1067v1.3053h-1.8187zm-0.0587-5.2507q-0.19067 0.36667-0.38133 0.71867-0.176 0.352-0.396 0.792-0.20534 0.42533-0.46934 0.98266-0.264 0.55734-0.60133 1.3053h1.936q0.0147-0.748 0-1.3053 0-0.55733-0.0147-0.98266-0.0147-0.44-0.044-0.792-0.0147-0.36667-0.0293-0.71867z" style="font-feature-settings:normal;font-variant-caps:normal;font-variant-ligatures:normal;font-variant-numeric:normal"/>
    <path d="m366.38 131.65q0.0733 0.0147 0.16133 0.0147 0.088 0 0.16133 0 0.836 0 1.408-0.42534 0.58667-0.44 0.93867-1.1 0.352-0.67466 0.51333-1.4667 0.16134-0.792 0.16134-1.496 0-0.352-0.0587-0.66t-0.20533-0.528q-0.14667-0.23467-0.41067-0.352-0.264-0.132-0.67467-0.132-0.264 0-0.528 0.044zm5.1627-4.532q0 1.1733-0.27866 2.288-0.27867 1.1-0.89467 1.9507-0.616 0.85066-1.5987 1.364-0.968 0.51333-2.3467 0.51333-0.46934 0-1.0707-0.0587-0.60133-0.044-1.1147-0.16133l2.1413-8.8587q0.64533-0.132 1.0853-0.176 0.45467-0.044 0.924-0.044 1.4667 0 2.3027 0.836 0.85066 0.82134 0.85066 2.3467z" style="font-feature-settings:normal;font-variant-caps:normal;font-variant-ligatures:normal;font-variant-numeric:normal"/>
    <path d="m371.63 133.12 0.352-1.496h1.9947l1.4667-6.0867h-1.9947l0.352-1.496h5.764l-0.352 1.496h-1.9653l-1.4667 6.0867h1.9653l-0.352 1.496z" style="font-feature-settings:normal;font-variant-caps:normal;font-variant-ligatures:normal;font-variant-numeric:normal"/>
    <path d="m381.93 133.31q-1.2907 0-1.892-0.616-0.60134-0.616-0.60134-1.716 0-0.60133 0.176-1.3493l1.3493-5.588h1.804l-1.3347 5.5733q-0.0733 0.33734-0.132 0.64534-0.0587 0.29333-0.0587 0.54266 0 0.44 0.20534 0.68934 0.20533 0.24933 0.748 0.24933 0.32266 0 0.55733-0.088 0.23467-0.10267 0.41067-0.32267 0.176-0.23466 0.308-0.616 0.14666-0.38133 0.27866-0.95333l1.3787-5.72h1.804l-1.408 5.852q-0.19067 0.80667-0.44 1.4373-0.23467 0.63067-0.63067 1.0707t-1.012 0.67467q-0.60133 0.23466-1.5107 0.23466z" style="font-feature-settings:normal;font-variant-caps:normal;font-variant-ligatures:normal;font-variant-numeric:normal"/>
    <path d="m389.25 131.8q0.33733 0 0.64533-0.0587 0.308-0.0733 0.528-0.22 0.23467-0.16133 0.36667-0.396 0.14667-0.23467 0.14667-0.58667 0-0.264-0.11734-0.46933-0.10266-0.22-0.29333-0.396t-0.45467-0.32267q-0.24933-0.14666-0.54266-0.29333-0.36667-0.19067-0.68934-0.38133-0.308-0.19067-0.54266-0.45467-0.22-0.264-0.352-0.63067-0.132-0.36666-0.132-0.89466 0-1.2907 0.86533-2.068 0.88-0.792 2.4933-0.792 0.528 0 0.93867 0.0733 0.42533 0.0733 0.748 0.176 0.32267 0.10267 0.54267 0.22 0.23466 0.11733 0.38133 0.20533l-0.76267 1.3933q-0.33733-0.23467-0.85066-0.396-0.51334-0.16134-1.232-0.16134-0.55734 0-0.95334 0.24934-0.38133 0.24933-0.38133 0.86533 0 0.49867 0.32267 0.76267 0.33733 0.24933 0.80666 0.45466 0.44 0.20534 0.80667 0.42534t0.63067 0.51333 0.41066 0.68933q0.16134 0.396 0.16134 0.93867 0 1.496-0.968 2.288-0.95334 0.77733-2.7133 0.77733-0.58666 0-1.056-0.088-0.45466-0.088-0.792-0.20533-0.33733-0.11733-0.58666-0.24933-0.23467-0.14667-0.38134-0.24934l0.77734-1.3787q0.14666 0.088 0.36666 0.20533 0.23467 0.11733 0.51334 0.22 0.29333 0.10267 0.63066 0.176 0.33734 0.0587 0.71867 0.0587z" style="font-feature-settings:normal;font-variant-caps:normal;font-variant-ligatures:normal;font-variant-numeric:normal"/>
   </g>
  </g>
  <text x="96.885201" y="34.006786" fill="#000000" font-family="sans-serif" font-size="3.8806px" letter-spacing="0px" stroke-width=".26458" text-align="center" text-anchor="middle" word-spacing="0px" style="font-feature-settings:normal;font-variant-caps:normal;font-variant-ligatures:normal;font-variant-numeric:normal;line-height:1.25" xml:space="preserve"><tspan x="96.885201" y="37.44017" stroke-width=".26458"/></text>
 </g>
</svg>
